<svg width="422" height="422" viewBox="0 0 422 422" fill="none" xmlns="http://www.w3.org/2000/svg">
<circle cx="211" cy="211" r="211" fill="#3366FF"/>
<path d="M88 76H334V106H88V76Z" fill="#FFF"/>
<path d="M118 131C118 139.284 111.284 146 103 146C94.7157 146 88 139.284 88 131C88 122.716 94.7157 116 103 116C111.284 116 118 122.716 118 131Z" fill="#FFF"/>
<path d="M88 156H166V186H88V156Z" fill="#FFF"/>
<path d="M206 171C206 179.284 199.284 186 191 186C182.716 186 176 179.284 176 171C176 162.716 182.716 156 191 156C199.284 156 206 162.716 206 171Z" fill="#FFF"/>
<path d="M246 171C246 179.284 239.284 186 231 186C222.716 186 216 179.284 216 171C216 162.716 222.716 156 231 156C239.284 156 246 162.716 246 171Z" fill="#FFF"/>
<path d="M256 156H334V186H256V156Z" fill="#FFF"/>
<path d="M88 196H334V226H88V196Z" fill="#FFF"/>
<path d="M88 236H186V266H88V236Z" fill="#FFF"/>
<path d="M196 236H294V266H196V236Z" fill="#FFF"/>
<path d="M334 251C334 259.284 327.284 266 319 266C310.716 266 304 259.284 304 251C304 242.716 310.716 236 319 236C327.284 236 334 242.716 334 251Z" fill="#FFF"/>
<path d="M118 291C118 299.284 111.284 306 103 306C94.7157 306 88 299.284 88 291C88 282.716 94.7157 276 103 276C111.284 276 118 282.716 118 291Z" fill="#FFF"/>
<path d="M128 276H334V306H128V276Z" fill="#FFF"/>
<path d="M118 331C118 339.284 111.284 346 103 346C94.7157 346 88 339.284 88 331C88 322.716 94.7157 316 103 316C111.284 316 118 322.716 118 331Z" fill="#FFF"/>
<path d="M128 316H206V346H128V316Z" fill="#FFF"/>
<path d="M216 316H294V346H216V316Z" fill="#FFF"/>
<path d="M334 331C334 339.284 327.284 346 319 346C310.716 346 304 339.284 304 331C304 322.716 310.716 316 319 316C327.284 316 334 322.716 334 331Z" fill="#FFF"/>
</svg>
